<svg id="Слой_1" data-name="Слой 1" xmlns="http://www.w3.org/2000/svg" viewBox="0 0 150 190"><defs><style>.cls-1{fill-rule:evenodd;}</style></defs><path class="cls-1" d="M133.71,69.31c-2.83,6.39-8.88,8-15.28,5.1l1-3.51c2.84.92,7.45.33,9.2-3.47,1.28-2.77.36-5.22-2.14-6.06a4.63,4.63,0,0,0-2.88.07c0,.36-.07,1-.09,1.31,3.6.28,2.65,5.13,0,5.15a5.32,5.32,0,0,1-4.37-2.1,6.47,6.47,0,0,1-.34-6.08c1.32-3.07,6.21-5.14,10.31-3.24C134.13,58.79,136.1,63.92,133.71,69.31ZM116,99.5c7.46-1.44,10.24,9.18,1.89,10.79-5.76,1.11-33.94,6.17-33.94,6.17l0,2.66s26.21-1.6,31.5-2.09c7.55-.7,9,10,.49,10.74-5.72.53-32.37,2.14-32.37,2.14l-.21,2.52s19.59,1.64,23.8,1.82c6.84.29,6.36,10.28-1.31,9.93-10.78-.49-39.19-1.63-54.92-2.26L34.22,152.11,15.28,119.3s20.27-13,26.93-16.87,17-18.87,22-35.83c8.67,2.21,10.45,7.69,8.8,15.24-.19.88-2.45,8-4,13,10.26-3.45,26.23-8.57,41.33-12.33,7.37-1.84,10,8,2,10.74-6.12,2.06-29.81,8.59-29.81,8.59l.66,3.22S110.72,100.51,116,99.5Zm-18.4-28c-10.52,1-17.24-4.65-18.17-14.6-.33-3.44,1.31-8.8,4.19-11.58.56.38,2.37,1.78,3,2.24-1.43,1.69-2.23,5.86-1.91,8.61.8,6.7,5.41,10.46,12.46,9.56,4.58-.58,7.27-5.36,6.83-9.12-.54-4.52-2.76-6.63-6.92-6.32-3,.22-4.71,2.3-4.18,4.88a4.62,4.62,0,0,0,1.5,2.46l1.18-.58C94,53.82,98.67,52.22,100,54.49a5.33,5.33,0,0,1,.36,4.84,6.48,6.48,0,0,1-5.09,3.34c-3.32.38-7.08-2.28-7.5-6.78-.5-5.51,2.48-10.27,8.34-11,7.57-.87,12.55,3.82,13.38,10.86S105.74,70.7,97.59,71.52Z"/></svg>