<svg id="Слой_1" data-name="Слой 1" xmlns="http://www.w3.org/2000/svg" viewBox="0 0 150 190"><defs><style>.cls-1{fill-rule:evenodd;}</style></defs><path class="cls-1" d="M140.74,59.56,122.41,76.62l6.47-15.5-4.61-3.6,8-19L145.23,45l-8.38,11.14ZM118,103.14c-6.29,1-29.17,5.16-29.17,5.16l-.07,3.29s27.45,2,31.92,2.12c7.6.2,8.13,11.34-.38,11.45-5.87.07-32.07-.76-32.07-.76s-3.64,16.64-10,22.74c-6.86-2-20.79-4.29-30.43-5.77L31.22,151.43,12.28,118.62l25.77-15c7-4.07,20.6-15.67,25.81-33.54,9.14,2.34,11,8.1,9.27,16.06-.31,1.43-1.67,5.13-2.44,7.71-1.22.48-6.53,2.72-6.53,2.72L65,99.27c16.86-2.85,38-6.39,51.36-8.47C123.88,89.63,126.33,101.76,118,103.14ZM110.63,77,108,64.22l-4.37.09L100.8,51.56l9.74-1.62L110,58.06l4.28.15Z"/></svg>